# xmcd
#
# Track frame offsets: 
#        150
#        13121
#        24604
#        34993
#        45251
#        55027
#        63534
#        72960
#        84268
#        96714
#        107584
#        117623
#
# Disc length: 1714 seconds
#
# Revision: 0
# Processed by: cddbd v1.5.2PL0 Copyright (c) Steve Scherf et al.
# Submitted via: ExactAudioCopy v0.95b3
#
DISCID=a106b00c
DTITLE=Gary Lewis and The Playboys  - She's Just My Style (mono)  FLAC
DYEAR=1900
DGENRE=
TTITLE0=She's Just My Style
TTITLE1=Lies
TTITLE2=All I Have to Do is Dream
TTITLE3=You've Got to Hide Your Love Away
TTITLE4=I Won't Make That Mistake Again
TTITLE5=A 100 Pounds of Clay
TTITLE6=Run For Your Life
TTITLE7=Take Good Care of My Baby
TTITLE8=Down in the Boondocks
TTITLE9=You Didn't Have to Be So Nice
TTITLE10=Someone I Used to Know
TTITLE11=Heart Full of Soul
EXTD=
EXTT0=
EXTT1=
EXTT2=
EXTT3=
EXTT4=
EXTT5=
EXTT6=
EXTT7=
EXTT8=
EXTT9=
EXTT10=
EXTT11=
PLAYORDER=
